<svg width="705" height="485" viewBox="0 0 705 485" fill="none" xmlns="http://www.w3.org/2000/svg">
<path fill-rule="evenodd" clip-rule="evenodd" d="M645.839 38.1224C712.91 84.6182 729.043 205.132 662.355 267.145C592.004 332.565 482.307 264.259 386.554 279.233C341.092 286.342 307.178 328.364 261.858 329.773C192.401 331.934 115.113 333.487 73.2816 288.978C22.0593 234.476 -33.948 139.73 27.5531 80.4699C95.0076 15.4731 203.492 74.9069 296.562 73.8324C328.119 73.468 355.324 79.5664 387.088 76.3189C476.812 67.1455 579.612 -7.7887 645.839 38.1224Z" fill="#F0F0F0"/>
<path fill-rule="evenodd" clip-rule="evenodd" d="M168.488 36.4702C173.096 31.0615 176.215 24.433 175.694 17.0056C174.192 -4.39491 144.402 0.31292 138.607 11.114C132.812 21.9152 133.501 49.3131 140.99 51.2436C143.977 52.0134 150.339 50.1276 156.815 46.2244L152.75 74.9801H176.75L168.488 36.4702Z" fill="#B28B67"/>
<path fill-rule="evenodd" clip-rule="evenodd" d="M155.615 19.369C154.696 32.1662 152.266 38.5648 148.325 38.5648C142.412 38.5648 137.395 34.8112 134.801 34.8112C132.91 34.8112 133.332 37.1778 134.585 38.9326C135.62 40.3803 140.656 41.7757 140.656 44.0202C140.656 46.2646 136.677 44.5282 136.677 45.8593C136.677 48.0612 135.978 52.2011 139.799 52.2011C143.667 52.2011 154.756 50.7917 156.656 45.0516C157.882 41.3471 158.675 33.6707 159.035 22.0223C159.27 21.9945 159.508 21.9801 159.75 21.9801C163.064 21.9801 165.75 24.6664 165.75 27.9801C165.75 29.6623 165.058 31.1829 163.943 32.2723C165.331 34.2319 166.887 36.279 168.67 38.3913C175.368 34.3728 180.338 22.6091 173.79 11.3084C171.98 5.77235 167.882 2.81535 163.043 1.44232C159.123 -0.197471 155.054 -0.382359 151.618 0.60068C144.884 1.17827 138.871 3.23162 137.167 4.45106C137.167 10.8263 138.403 12.7178 148.954 12.5511C151.546 13.9202 153.539 16.278 155.615 19.369Z" fill="#191847"/>
<path fill-rule="evenodd" clip-rule="evenodd" d="M184.75 157.98L148.495 285.207L122.043 378.98H102.75L130.859 157.98H184.75Z" fill="#191847"/>
<path fill-rule="evenodd" clip-rule="evenodd" d="M194.446 157.98C195.285 223.554 198.144 259.32 199.025 265.278C199.905 271.236 213.218 309.136 238.964 378.98H218.978C186.201 311.977 167.905 274.076 164.088 265.278C160.271 256.48 148.492 220.714 130.75 157.98H194.446Z" fill="#2F3676"/>
<path fill-rule="evenodd" clip-rule="evenodd" d="M240.75 396.98L239.75 375.98H218.75C208.793 382.98 195.793 388.647 179.75 392.98V396.98H217.75L230.75 394.98V396.98H240.75Z" fill="#191847"/>
<path fill-rule="evenodd" clip-rule="evenodd" d="M124.75 396.98L123.75 375.98H102.75C92.7928 382.98 79.7928 388.647 63.7504 392.98V396.98H101.75L114.75 394.98V396.98H124.75Z" fill="#191847"/>
<path fill-rule="evenodd" clip-rule="evenodd" d="M100.392 141.59L70.2049 167.182C61.7374 170.114 54.7296 173.516 49.1815 177.387C47.9008 178.729 46.4242 181.368 52.0663 180.535C57.7084 179.703 63.6805 179.08 64.5985 180.96C65.5165 182.84 62.2456 185.394 64.0103 187.894C65.1868 189.561 69.865 184.848 78.0447 173.757L108.642 158.487L100.392 141.59ZM237.083 130.516L219.371 133.088C238.384 174.338 248.576 196.153 249.949 198.534C253.039 203.89 249.405 213.22 247.985 218.16C255.163 220.232 252.871 209.142 261.947 211.908C270.232 214.433 277.069 220.157 285.274 213.35C286.283 212.514 287.133 209.777 283.926 208.183C275.938 204.211 264.209 196.943 262.386 194.264C259.9 190.611 251.466 169.362 237.083 130.516Z" fill="#B28B67"/>
<path fill-rule="evenodd" clip-rule="evenodd" d="M163.055 58.3121L152.08 54.6827C137.193 91.873 114.99 127.856 77.8933 158.25L87.0668 174.077C119.669 154.872 150.532 139.953 163.055 111.135C167.259 101.463 163.398 69.8771 163.055 58.3121Z" fill="#2C4A31"/>
<path fill-rule="evenodd" clip-rule="evenodd" d="M200.75 162.98C169.312 166.313 144.567 166.313 126.514 162.98C124.278 162.567 123.925 158.822 124.962 156.281C141.114 116.705 152.19 82.1717 152.19 54.6827C155.154 56.1769 160.341 56.4008 167.75 55.3545C187.664 83.6828 196.818 116.186 200.75 162.98Z" fill="#323337"/>
<path fill-rule="evenodd" clip-rule="evenodd" d="M172.701 52.9801H164.402C162.47 64.345 156.375 218.243 137.56 268.586H239.365C237.158 222.467 219.748 167.068 202.111 120.708C217.706 134.98 231.299 159.161 242.889 193.253L261.958 188.358C247.779 127.261 218.628 82.355 174.504 53.6391C174.409 53.4184 174.313 53.1987 174.219 52.9801H173.484C173.214 52.8066 172.943 52.6337 172.672 52.4614L172.701 52.9801V52.9801Z" fill="#3F6946"/>
<path fill-rule="evenodd" clip-rule="evenodd" d="M538.466 158.573C534.308 153.68 531.494 147.684 531.964 140.966C533.319 121.607 560.203 125.866 565.432 135.636C570.662 145.407 570.04 170.19 563.282 171.936C560.586 172.633 554.845 170.927 549.001 167.396L552.669 193.408H531.01L538.466 158.573Z" fill="#B28B67"/>
<path fill-rule="evenodd" clip-rule="evenodd" d="M553.087 124.375C550.233 123.906 542.547 123.584 541.129 123.584C540.224 123.584 539.242 123.791 538.706 122.958C538.266 122.275 538.427 121.12 538.296 120.328C538.144 119.408 537.928 118.499 537.709 117.593C537.086 115.015 536.145 112.561 534.828 110.258C532.357 105.937 528.737 102.552 524.167 100.583C519.12 98.4082 513.409 97.9102 507.98 98.3513C502.171 98.8232 496.912 100.746 491.427 102.555C486.2 104.278 480.726 104.957 475.259 104.115C469.751 103.267 465.589 100.275 460.943 97.4345C456.187 94.5269 450.752 92.6253 445.13 93.0624C439.881 93.4706 435.044 95.6428 430.704 98.5446C426.644 101.26 423.293 104.526 421.402 109.123C419.367 114.068 419.369 119.497 422.715 123.867C427.565 130.202 436.57 131.84 444.061 131.677C448.394 131.583 452.65 130.791 456.74 129.348C462.196 127.425 466.911 124.165 472.015 121.52C474.41 120.278 476.886 119.259 479.481 118.524C482 117.812 484.48 117.485 486.76 119.01C489.172 120.623 491.334 122.207 494.093 123.217C496.74 124.186 499.544 124.728 502.365 124.706C507.852 124.664 513.262 122.95 518.591 121.802C522.937 120.866 527.588 119.933 532.018 120.833C533.867 121.208 536.568 121.984 537.236 123.91C525.996 125.951 521.582 139.884 524.751 150.112C526.461 155.633 536.74 162.086 540.737 159.184C543.27 157.345 541.732 154.932 540.737 153.338C538.832 150.287 538.18 146.367 541.706 144.242C544.747 142.41 547.944 146.761 548.005 146.757C548.84 146.691 556.062 142.597 561.038 136.622C565.947 136.914 566.692 133.67 565.519 131.017C564.347 128.363 557.032 125.024 553.087 124.375Z" fill="#191847"/>
<path fill-rule="evenodd" clip-rule="evenodd" d="M525.605 268.508L592.662 380.881L642.936 475.883H653.764L569.53 268.508L525.605 268.508Z" fill="#997659"/>
<path fill-rule="evenodd" clip-rule="evenodd" d="M636.315 471.497C635.305 474.198 634.8 476.22 634.8 477.561C634.8 479.192 635.071 481.573 635.614 484.702C637.502 484.702 654.468 484.702 686.513 484.702C687.836 480.319 687.072 477.953 684.222 477.603C681.373 477.254 679.005 476.938 677.12 476.656L653.463 466.085C653.008 465.881 652.474 466.086 652.271 466.543C652.268 466.551 652.264 466.558 652.261 466.566L650.74 470.264C648.102 471.498 645.958 472.115 644.309 472.115C642.969 472.115 641.118 471.572 638.757 470.487L638.757 470.487C637.851 470.071 636.78 470.469 636.364 471.378C636.346 471.417 636.33 471.457 636.315 471.497Z" fill="#E4E4E4"/>
<path fill-rule="evenodd" clip-rule="evenodd" d="M628.973 460.67L649.856 454.338C640.707 426.922 629.493 396.752 616.215 363.827C602.937 330.903 588.677 299.13 573.434 268.508H514.454C531.401 307.243 549.366 342.439 568.35 374.095C587.334 405.752 607.542 434.61 628.973 460.67Z" fill="#DB2721"/>
<path fill-rule="evenodd" clip-rule="evenodd" d="M521.198 268.508C514.869 307.997 502.662 358.448 501.51 360.005C500.742 361.043 473.094 370.329 418.566 387.864L420.905 397.436C485.93 388.032 520.192 380.736 523.693 375.547C528.943 367.765 555.159 306.286 565.312 268.508H521.198Z" fill="#B28B67"/>
<path fill-rule="evenodd" clip-rule="evenodd" d="M437.734 379.591L441.854 395.006C490.488 399.282 520.288 396.192 531.252 385.738C542.217 375.283 554.713 336.207 568.741 268.508H512.5C503.612 323.944 498.643 352.826 497.593 355.153C496.543 357.48 476.59 365.626 437.734 379.591Z" fill="#FF4133"/>
<path fill-rule="evenodd" clip-rule="evenodd" d="M421.237 383.877C418.407 383.349 416.334 383.202 415.016 383.435C413.413 383.718 411.122 384.399 408.141 385.478C408.469 387.342 411.415 404.09 416.98 435.723C421.516 436.267 423.708 435.102 423.557 432.229C423.405 429.355 423.304 426.963 423.253 425.054L429.532 399.865C429.653 399.38 429.358 398.889 428.875 398.768C428.867 398.766 428.858 398.764 428.85 398.762L424.953 397.903C423.283 395.513 422.305 393.504 422.018 391.876C421.785 390.553 421.997 388.632 422.653 386.113L422.653 386.113C422.905 385.146 422.327 384.157 421.362 383.905C421.321 383.894 421.279 383.885 421.237 383.877Z" fill="#E4E4E4"/>
<path fill-rule="evenodd" clip-rule="evenodd" d="M603.252 254.134L628.817 279.132C636.255 282.313 642.35 285.824 647.1 289.668C648.169 290.959 649.332 293.434 644.305 292.327C639.278 291.219 633.941 290.281 632.996 291.919C632.052 293.558 634.836 296.069 633.089 298.214C631.925 299.643 628.011 295.096 621.345 284.571L594.762 268.861L603.252 254.134ZM489.783 257.66L508.641 257.734C496.997 295.413 490.711 315.405 489.783 317.711C487.694 322.898 492.113 330.798 494.003 335.044C487.848 337.804 488.504 327.581 480.74 331.202C473.654 334.506 468.263 340.494 460.075 335.43C459.069 334.808 457.966 332.464 460.631 330.632C467.271 326.068 476.839 318.081 478.132 315.452C479.895 311.867 483.779 292.603 489.783 257.66Z" fill="#B28B67"/>
<path fill-rule="evenodd" clip-rule="evenodd" d="M543.376 178.34L551.18 176.998C564.615 210.639 588.071 241.207 621.549 268.7L596.251 299.507C562.778 260.36 542.144 219.971 543.376 178.34Z" fill="#191847"/>
<path fill-rule="evenodd" clip-rule="evenodd" d="M509.359 276.638H578.846C562.748 237.402 554.698 204.072 554.698 176.647L533.737 173.516C517.264 200.073 512.612 232.77 509.359 276.638Z" fill="#DDE3E9"/>
<path fill-rule="evenodd" clip-rule="evenodd" d="M533.293 173.531C533.296 173.526 533.299 173.521 533.302 173.516H534.67C536.307 173.573 538.801 173.675 542.151 173.822L547.216 188.33C547.752 206.02 550.881 241.669 556.602 295.278H511.052C511.171 298.98 511.368 302.717 511.642 306.489H477.773C482.839 249.197 501.341 204.873 533.277 173.516L533.293 173.531Z" fill="#2F3676"/>
<path fill-rule="evenodd" clip-rule="evenodd" d="M514.06 247.902C515.357 270.982 518.602 286.893 523.798 295.634H511.063C510.506 279.029 511.505 263.118 514.06 247.902V247.902Z" fill="black" fill-opacity="0.1"/>
<path fill-rule="evenodd" clip-rule="evenodd" d="M521.19 267.592L543.651 257.126V267.592H521.19Z" fill="white" fill-opacity="0.2"/>
</svg>
