<svg width="320" height="509" viewBox="0 0 320 509" fill="none" xmlns="http://www.w3.org/2000/svg">
<path d="M158 333C235.32 333 298 270.32 298 193C298 115.68 235.32 53 158 53C80.6801 53 18 115.68 18 193C18 270.32 80.6801 333 158 333Z" fill="#E4E4E4"/>
<path d="M280 80C302.091 80 320 62.0914 320 40C320 17.9086 302.091 0 280 0C257.909 0 240 17.9086 240 40C240 62.0914 257.909 80 280 80Z" fill="#E4E4E4"/>
<path fill-rule="evenodd" clip-rule="evenodd" d="M144.581 148.49C139.973 143.081 136.854 136.453 137.376 129.025C138.877 107.625 168.667 112.333 174.462 123.134C180.257 133.935 179.568 161.333 172.079 163.263C169.092 164.033 162.73 162.147 156.254 158.244L160.319 187H136.319L144.581 148.49Z" fill="#915B3C"/>
<path fill-rule="evenodd" clip-rule="evenodd" d="M164.982 111.37C161.703 110.37 156.942 110.031 154.94 110.26C156.079 107.531 156.531 104.49 156.162 101.529C155.804 98.6521 154.519 96.2024 153.33 93.6354C152.782 92.4522 152.16 91.2754 151.234 90.3704C150.291 89.4483 149.097 88.8397 147.845 88.5494C146.564 88.2522 145.224 88.2769 143.94 88.5466C143.373 88.6659 142.863 88.9255 142.307 89.0698C141.736 89.2176 141.46 88.8608 141.046 88.5021C140.049 87.638 138.587 87.2114 137.325 87.0587C135.909 86.8875 134.44 87.101 133.09 87.5664C131.776 88.0194 130.514 88.7551 129.563 89.8268C129.14 90.3039 128.756 90.8469 128.507 91.4464C128.405 91.6924 128.388 91.8381 128.142 91.9283C127.915 92.0117 127.649 92.0141 127.415 92.0935C125.149 92.8609 123.212 94.6117 122.157 96.8595C121.542 98.1709 121.25 100.48 121.33 103.068C121.41 105.656 123.747 112.408 125.932 114.871C127.883 117.07 130.751 118.52 133.518 119.155C131.681 121.255 130.458 123.878 129.554 126.547C128.572 129.445 127.964 132.457 127.74 135.525C127.527 138.44 127.507 141.524 128.19 144.377C128.83 147.045 130.197 149.234 132.48 150.622C133.525 151.258 134.65 151.736 135.782 152.173C136.897 152.603 138.015 153.022 139.183 153.263C141.394 153.72 143.941 153.642 145.644 151.882C146.258 151.248 146.932 150.451 147.38 149.676C147.541 149.397 147.638 149.215 147.443 148.943C147.208 148.616 146.829 148.366 146.528 148.111C144.812 146.656 143.749 144.713 143.481 142.405C143.21 140.063 143.839 137.039 146.116 136.017C148.927 134.755 152.023 136.204 154.522 137.554C155.583 133.806 157.764 130.431 161.182 128.712C164.964 126.811 169.304 126.588 173.19 124.956C174.203 124.531 175.234 124.048 175.98 123.182C176.291 122.82 176.657 122.35 176.781 121.871C176.945 121.242 176.539 120.715 176.226 120.224C174.564 117.624 168.262 112.37 164.982 111.37Z" fill="#191847"/>
<path fill-rule="evenodd" clip-rule="evenodd" d="M130.319 270L204.625 394.227L260.334 499.25H272.333L178.992 270L130.319 270Z" fill="#784931"/>
<path fill-rule="evenodd" clip-rule="evenodd" d="M252.997 494.402C251.878 497.388 251.319 499.623 251.319 501.106C251.319 502.909 251.619 505.54 252.22 509C254.312 509 273.113 509 308.622 509C310.088 504.155 309.241 501.539 306.084 501.152C302.926 500.766 300.303 500.417 298.214 500.106L271.999 488.419C271.494 488.194 270.903 488.421 270.678 488.925C270.674 488.934 270.671 488.942 270.667 488.951L268.982 493.039C266.059 494.403 263.683 495.085 261.855 495.085C260.371 495.085 258.32 494.485 255.703 493.286L255.703 493.285C254.699 492.825 253.512 493.266 253.052 494.27C253.032 494.313 253.014 494.357 252.997 494.402Z" fill="#E4E4E4"/>
<path fill-rule="evenodd" clip-rule="evenodd" d="M244.862 482.433L268.002 475.433C257.864 445.125 245.438 411.772 230.724 375.374C216.011 338.977 200.209 303.852 183.319 270H117.963C136.741 312.821 156.648 351.729 177.685 386.725C198.721 421.721 221.114 453.624 244.862 482.433Z" fill="#DB2721"/>
<path fill-rule="evenodd" clip-rule="evenodd" d="M125.435 270C118.422 313.654 104.896 369.427 103.619 371.149C102.768 372.296 72.1314 382.562 11.7087 401.947L14.3006 412.528C86.3546 402.132 124.321 394.066 128.2 388.331C134.018 379.728 163.067 311.763 174.319 270H125.435Z" fill="#915B3C"/>
<path fill-rule="evenodd" clip-rule="evenodd" d="M32.9483 392.8L37.5137 409.842C91.4059 414.569 124.427 411.153 136.577 399.596C148.726 388.039 162.573 344.84 178.118 270H115.797C105.948 331.284 100.442 363.212 99.279 365.785C98.1155 368.357 76.0053 377.363 32.9483 392.8Z" fill="#FF4133"/>
<path fill-rule="evenodd" clip-rule="evenodd" d="M14.6677 397.539C11.5323 396.956 9.23453 396.793 7.77438 397.05C5.99849 397.363 3.45919 398.116 0.156483 399.309C0.519744 401.369 3.78443 419.884 9.95055 454.854C14.9769 455.456 17.4062 454.168 17.2383 450.991C17.0705 447.814 16.9585 445.17 16.9024 443.059L23.8595 415.213C23.9933 414.677 23.6675 414.134 23.1317 414C23.1225 413.998 23.1133 413.996 23.1041 413.994L18.786 413.044C16.9351 410.402 15.851 408.181 15.5336 406.381C15.2758 404.919 15.5103 402.795 16.2371 400.01L16.2372 400.01C16.5161 398.941 15.8758 397.849 14.807 397.57C14.761 397.558 14.7145 397.548 14.6677 397.539Z" fill="#E4E4E4"/>
<path fill-rule="evenodd" clip-rule="evenodd" d="M180.957 207.7L215.667 188.69C221.439 181.836 227.126 176.512 232.728 172.72C234.44 172.005 237.433 171.573 234.634 176.542C231.834 181.51 229.113 186.863 230.539 188.394C231.965 189.924 235.522 187.786 237.223 190.329C238.358 192.025 232.282 194.704 218.995 198.365L193.775 221.458L180.957 207.7ZM235.319 223.74L250.565 215.364C252.705 207.224 255.262 203.128 258.237 203.077C260.523 202.014 256.542 212.3 260.875 211.408C265.208 210.516 275.783 202.651 277.605 204.248C280.301 206.61 277.897 213.865 275.065 217.473C269.772 224.218 265.389 226.524 254.557 229.544C248.894 231.124 242.77 234.289 236.187 239.04L235.319 223.74Z" fill="#915B3C"/>
<path fill-rule="evenodd" clip-rule="evenodd" d="M164.053 203.465C176.211 203.337 192.423 200.769 209.721 189.789L216.515 204.939C204.583 216.78 187.805 226.51 173.135 226.098C161.574 225.773 155.666 211.789 164.053 203.465Z" fill="#2026A2"/>
<path fill-rule="evenodd" clip-rule="evenodd" d="M180.423 227.761C193.33 230.98 214.974 227.184 245.355 216.373C252.89 231.964 256.374 243.078 255.805 249.717C229.743 263.331 207.405 269.401 189.002 269.802C189.587 280.721 188.258 291.112 183.793 300.606C174.613 320.124 120.864 302.048 102.792 305.606C91.4742 268.851 113.357 253.914 113.374 230.397C113.394 204.642 134.073 165 137.116 165H164.863C166.393 184.669 174.099 206.346 180.423 227.761Z" fill="#1F28CF"/>
</svg>
