<svg width="294" height="365" viewBox="0 0 294 365" fill="none" xmlns="http://www.w3.org/2000/svg">
<path d="M190 140C228.66 140 260 108.66 260 70C260 31.3401 228.66 0 190 0C151.34 0 120 31.3401 120 70C120 108.66 151.34 140 190 140Z" fill="#E4E4E4"/>
<path fill-rule="evenodd" clip-rule="evenodd" d="M202.738 71.4901C207.346 66.0814 210.464 59.4529 209.943 52.0255C208.442 30.625 178.651 35.3328 172.857 46.1339C167.062 56.9351 167.75 84.333 175.24 86.2635C178.226 87.0333 184.589 85.1475 191.065 81.2443L187 110H211L202.738 71.4901Z" fill="#915B3C"/>
<path fill-rule="evenodd" clip-rule="evenodd" d="M204.582 76.3075C207.594 62.9065 216.175 53.7714 214.865 47.7817C213.991 43.7886 211.662 41.3054 207.879 40.3321C205.922 32.4155 199.61 29.0482 188.944 30.2304C172.945 32.0036 163.181 38.6478 167.398 53.2679C171.274 53.2679 175.954 51.866 182.424 54.2679C184.478 55.03 185.946 57.3934 186.83 61.358H189.754C192.592 56.6531 195.391 54.9241 198.149 56.1712C200.908 57.4183 201.535 60.4474 200.03 65.2586L201.471 76.3075H204.582Z" fill="#191847"/>
<path fill-rule="evenodd" clip-rule="evenodd" d="M278 235H163C154.163 235 147 242.163 147 251V343C147 351.837 154.163 359 163 359H278C286.837 359 294 351.837 294 343V251C294 242.163 286.837 235 278 235ZM262 263C264.209 263 266 264.791 266 267V327C266 329.209 264.209 331 262 331H179C176.791 331 175 329.209 175 327V267C175 264.791 176.791 263 179 263H262Z" fill="#C5CFD6"/>
<path fill-rule="evenodd" clip-rule="evenodd" d="M47.841 354C67.5569 329.924 80.8971 312.075 87.8617 300.454C99.7868 280.555 109.547 262.848 112.627 256.084C119.972 239.955 95.7181 232.403 90.229 239.926C81.9209 251.312 64.178 287.143 37 347.417L47.841 354Z" fill="#B28B67"/>
<path fill-rule="evenodd" clip-rule="evenodd" d="M88.2424 347L124.935 254.637C132.783 237.8 94.8843 226.732 89.1167 234.568C76.0227 252.357 44.9012 322.534 41 327.834L88.2424 347Z" fill="#2F3676"/>
<path fill-rule="evenodd" clip-rule="evenodd" d="M185.967 328.477C178.819 318.051 152.821 282.974 138.661 268.461C134.592 264.291 130.621 260.288 126.866 256.557C115.704 245.47 93.4763 264.106 104.618 274.205C132.365 299.355 172.849 333.307 176.231 336.334C180.972 340.577 190.459 335.029 185.967 328.477Z" fill="#915B3C"/>
<path fill-rule="evenodd" clip-rule="evenodd" d="M184.295 323.767C186.758 325.794 188.359 327.45 189.101 328.734C190.002 330.296 191.058 332.725 192.267 336.021C190.456 337.067 174.174 346.467 143.422 364.222C139.73 360.759 139.155 358.07 141.696 356.157C144.238 354.243 146.335 352.629 147.988 351.315L164.848 328.087C165.172 327.64 165.798 327.54 166.244 327.865C166.252 327.87 166.26 327.876 166.267 327.882L169.77 330.579C172.984 330.299 175.382 329.702 176.965 328.788C178.251 328.045 179.727 326.501 181.393 324.154L181.393 324.154C182.033 323.253 183.281 323.041 184.182 323.681C184.221 323.708 184.259 323.737 184.295 323.767Z" fill="#E4E4E4"/>
<path fill-rule="evenodd" clip-rule="evenodd" d="M56.3219 350.402C57.4406 353.388 58 355.623 58 357.106C58 358.909 57.6996 361.54 57.0988 365C55.0068 365 36.2062 365 0.696945 365C-0.768738 360.155 0.0773392 357.539 3.23518 357.152C6.39301 356.766 9.01628 356.417 11.105 356.106L37.32 344.419C37.8244 344.194 38.4157 344.421 38.6405 344.925C38.6444 344.934 38.6481 344.942 38.6517 344.951L40.3368 349.039C43.2601 350.403 45.6356 351.085 47.4633 351.085C48.9483 351.085 50.999 350.485 53.6155 349.286L53.6155 349.285C54.6196 348.825 55.8067 349.266 56.267 350.27C56.2869 350.313 56.3052 350.357 56.3219 350.402Z" fill="#E4E4E4"/>
<path fill-rule="evenodd" clip-rule="evenodd" d="M138.138 259.25C168.635 254.282 189.062 250.884 199.419 249.058C228.943 243.852 237.552 227.965 232.462 193.302H178.066C170.867 195.381 140.79 208.237 87.8325 231.872C78.3044 236.602 80.0789 250.548 81.8204 255.142C81.8915 255.329 97.9539 282.853 130.008 337.713L174.506 309.366L138.054 262.59C137.092 260.651 137.12 259.538 138.138 259.25Z" fill="#5C63AB"/>
<path fill-rule="evenodd" clip-rule="evenodd" d="M134.219 180.211L102.321 203.635C93.6691 205.97 86.441 208.874 80.6365 212.348C79.2653 213.598 77.6082 216.128 83.2946 215.691C88.9811 215.254 94.982 215.049 95.7667 216.989C96.5513 218.928 93.1102 221.248 94.6962 223.865C95.7536 225.61 100.749 221.235 109.683 210.741L141.27 197.642L134.219 180.211ZM256.692 181.02L235.795 181.102C248.698 222.756 255.664 244.857 256.692 247.406C259.006 253.14 254.109 261.874 252.015 266.567C258.835 269.619 258.109 258.317 266.712 262.319C274.565 265.973 280.538 272.592 289.611 266.994C290.726 266.306 291.949 263.715 288.995 261.69C281.638 256.644 271.035 247.815 269.602 244.908C267.648 240.945 263.345 219.649 256.692 181.02Z" fill="#915B3C"/>
<path fill-rule="evenodd" clip-rule="evenodd" d="M197.305 93.3319L188.658 91.8488C156.575 119.564 143.397 172.809 104.07 201.015L113.536 212.748C181.76 204.3 198.67 139.355 197.305 93.3319Z" fill="#E87613"/>
<path fill-rule="evenodd" clip-rule="evenodd" d="M235 202C200.328 202 174.824 202 158.489 202C154.992 202 155.651 196.952 156.157 194.404C161.989 165.004 184.759 133.312 184.759 91.4607L206.828 88C225.083 117.358 231.395 153.505 235 202Z" fill="#DDE3E9"/>
<path fill-rule="evenodd" clip-rule="evenodd" d="M234.385 116.858C237.59 115.937 240.129 113.788 242 110.411C250.066 95.856 247.153 87.8424 238.533 85.2082C229.912 82.5741 222.225 87.9999 208.49 87.9999C207.743 87.9999 207.059 88.0468 206.437 88.1404L199.528 88.5347C179.706 155.715 174.239 200.537 183.128 223H243.348C246.916 231.32 250.33 238.32 253.591 244H270C271.544 194.067 259.673 151.686 234.385 116.858Z" fill="#FF9B21"/>
<path fill-rule="evenodd" clip-rule="evenodd" d="M230.235 188.498C228.341 204.344 225.263 215.845 221 223H243.348C239.186 213.295 234.815 201.794 230.235 188.498Z" fill="black" fill-opacity="0.1"/>
</svg>
